# xmcd CD database file
#
# Track frame offsets:
#	150
#	15452
#	37055
#	75205
#	102220
#	118577
#	137130
#	159062
#	168095
#	193060
#
# Disc length: 2731 seconds
#
# Revision: 0
# Processed by: cddbd v1.5.1PL0 Copyright (c) Steve Scherf et al.
# Submitted via: CDex 1.51
#
DISCID=6c0aa90a
DTITLE=溝口肇 - Halfinch Dessert
DYEAR=1986
DGENRE=New Age
TTITLE0=パラレル・ワールド
TTITLE1=キリンと月
TTITLE2=森の中のキング・コング
TTITLE3=海のおくりもの
TTITLE4=眠るミルク・ブッシュ
TTITLE5=露野
TTITLE6=西からの夢
TTITLE7=サバンナ・ワルツ
TTITLE8=オリエンタル・パズル
TTITLE9=パラソルの下で
EXTD=YEAR: 1986
EXTT0=
EXTT1=
EXTT2=
EXTT3=
EXTT4=
EXTT5=
EXTT6=
EXTT7=
EXTT8=
EXTT9=
PLAYORDER=
